<svg width="25" height="25" viewBox="0 0 25 25" fill="none" xmlns="http://www.w3.org/2000/svg">
<path d="M11.8145 4.45801H4.81445C4.28402 4.45801 3.77531 4.66872 3.40024 5.04379C3.02517 5.41887 2.81445 5.92757 2.81445 6.45801V20.458C2.81445 20.9884 3.02517 21.4971 3.40024 21.8722C3.77531 22.2473 4.28402 22.458 4.81445 22.458H18.8145C19.3449 22.458 19.8536 22.2473 20.2287 21.8722C20.6037 21.4971 20.8145 20.9884 20.8145 20.458V13.458" stroke="black" stroke-width="2" stroke-linecap="round" stroke-linejoin="round"/>
<path d="M19.3145 2.95823C19.7123 2.56041 20.2518 2.33691 20.8145 2.33691C21.3771 2.33691 21.9166 2.56041 22.3145 2.95823C22.7123 3.35606 22.9358 3.89563 22.9358 4.45823C22.9358 5.02084 22.7123 5.56041 22.3145 5.95823L12.8145 15.4582L8.81445 16.4582L9.81445 12.4582L19.3145 2.95823Z" stroke="black" stroke-width="2" stroke-linecap="round" stroke-linejoin="round"/>
</svg>
